<svg width="12" height="12" viewBox="0 0 12 12" fill="none" xmlns="http://www.w3.org/2000/svg">
<path d="M6.00016 1.16667C3.33349 1.16667 1.16682 3.33334 1.16682 6.00001C1.16682 8.66668 3.33349 10.8333 6.00016 10.8333C8.66682 10.8333 10.8335 8.66668 10.8335 6.00001C10.8335 3.33334 8.66682 1.16667 6.00016 1.16667ZM9.36682 3.26667C10.0502 4.11667 10.4502 5.18334 10.4502 6.34167C10.3002 6.29167 8.85016 5.93334 7.38349 6.14167C7.33349 6.01667 7.28349 5.90001 7.22516 5.77501C7.10016 5.48334 6.95849 5.18334 6.81682 4.89167C8.43349 4.15001 9.25016 3.38334 9.36682 3.26667ZM6.00016 1.55001C7.23349 1.55001 8.36682 2.00001 9.25016 2.75001C9.15016 2.85001 8.41682 3.56667 6.85016 4.23334C6.08349 2.91667 5.23349 1.83334 5.10016 1.65001C5.40016 1.58334 5.70016 1.55001 6.00016 1.55001ZM4.23349 1.93334C4.35016 2.10001 5.18349 3.19167 5.96682 4.47501C3.85016 5.08334 2.00016 5.07501 1.78349 5.07501C2.13349 3.70001 3.03349 2.55001 4.23349 1.93334ZM1.54182 6.00834C1.54182 5.95001 1.54182 5.89167 1.54182 5.83334C1.75016 5.84167 3.95849 5.86667 6.23349 5.14167C6.41682 5.49167 6.58349 5.85001 6.74182 6.20834C6.66682 6.23334 6.58349 6.25834 6.50849 6.28334C4.15016 7.09167 2.81682 9.15001 2.68349 9.37501C1.98349 8.51667 1.54182 7.31667 1.54182 6.00834ZM6.00016 10.4667C4.85849 10.4667 3.80016 10.075 2.95016 9.41667C3.05849 9.20001 4.05016 7.41667 6.63349 6.46667C6.65016 6.45834 6.65849 6.45834 6.67516 6.45001C7.25849 8.00834 7.53349 9.31667 7.61682 9.75001C7.11682 10.1833 6.58349 10.4667 6.00016 10.4667ZM8.00016 9.35001C7.94182 9.05001 7.68349 7.80001 7.13349 6.27501C8.50016 6.03334 9.70849 6.46667 9.86682 6.52501C9.65016 7.70001 8.95016 8.70834 8.00016 9.35001Z" fill="#2B2B2B"/>
</svg> 