<svg width="12" height="12" viewBox="0 0 12 12" fill="none" xmlns="http://www.w3.org/2000/svg">
<path d="M8.5 1.16667H3.5C2.20417 1.16667 1.16667 2.20417 1.16667 3.5V8.5C1.16667 9.79583 2.20417 10.8333 3.5 10.8333H8.5C9.79583 10.8333 10.8333 9.79583 10.8333 8.5V3.5C10.8333 2.20417 9.79583 1.16667 8.5 1.16667ZM6 8.5C4.70417 8.5 3.66667 7.46251 3.66667 6.16667C3.66667 4.87084 4.70417 3.83334 6 3.83334C7.29583 3.83334 8.33333 4.87084 8.33333 6.16667C8.33333 7.46251 7.29583 8.5 6 8.5ZM8.91667 4.08334C8.55833 4.08334 8.25 3.77501 8.25 3.41667C8.25 3.05834 8.55833 2.75001 8.91667 2.75001C9.275 2.75001 9.58333 3.05834 9.58333 3.41667C9.58333 3.77501 9.275 4.08334 8.91667 4.08334Z" fill="#2B2B2B"/>
</svg> 