<svg width="11" height="11" viewBox="0 0 11 11" fill="none" xmlns="http://www.w3.org/2000/svg">
<path d="M2.71484 10.8329H0.464844V3.74951H2.71484V10.8329ZM1.58318 2.79951C0.899844 2.79951 0.339844 2.22784 0.339844 1.54451C0.339844 1.21369 0.471261 0.896672 0.704809 0.663124C0.938358 0.429575 1.25537 0.298157 1.58618 0.298157C1.917 0.298157 2.23401 0.429575 2.46756 0.663124C2.70111 0.896672 2.83252 1.21369 2.83252 1.54451C2.83252 2.22784 2.27251 2.79951 1.58318 2.79951ZM10.8332 10.8329H8.58984V7.49951C8.58984 6.74951 8.57318 5.79951 7.56484 5.79951C6.53984 5.79951 6.37318 6.59951 6.37318 7.42784V10.8329H4.12318V3.74951H6.28151V4.74951H6.31484C6.58984 4.17784 7.31484 3.57451 8.39818 3.57451C10.6815 3.57451 10.8332 4.92784 10.8332 6.69951V10.8329Z" fill="#2B2B2B"/>
</svg> 