<svg width="12" height="10" viewBox="0 0 12 10" fill="none" xmlns="http://www.w3.org/2000/svg">
<path d="M11.0381 2.15186C11.0489 2.23391 11.0489 2.31596 11.0489 2.39856C11.0489 5.66726 8.51651 9.46666 3.87598 9.46666C2.44727 9.46666 1.11943 9.06861 0 8.37842C0.203209 8.40087 0.39563 8.41242 0.609482 8.41242C1.79154 8.41242 2.87685 8.02573 3.74553 7.37969C2.63399 7.35724 1.70664 6.63455 1.38631 5.63708C1.54286 5.65953 1.69941 5.67108 1.8666 5.67108C2.09368 5.67108 2.32077 5.64798 2.53719 5.60308C1.37565 5.37599 0.49632 4.37852 0.49632 3.17646V3.14311C0.827951 3.32645 1.21667 3.44185 1.62664 3.45341C0.9524 3.01201 0.507319 2.26642 0.507319 1.42463C0.507319 0.971661 0.630872 0.553264 0.845368 0.190575C2.08302 1.73406 4.00596 2.74308 6.13816 2.84803C6.09326 2.66469 6.0591 2.4708 6.0591 2.27691C6.0591 0.879961 7.19687 -0.258301 8.59436 -0.258301C9.32929 -0.258301 9.99798 0.0471954 10.4735 0.547614C11.0596 0.442712 11.6242 0.235866 12.1231 -0.0354435C11.9398 0.524515 11.5405 0.971661 11.0167 1.25365C11.5191 1.20875 12.0108 1.08179 12.4634 0.901102C12.1231 1.3588 11.6135 1.76077 11.0381 2.15186Z" fill="#2B2B2B"/>
</svg> 