<svg width="12" height="9" viewBox="0 0 12 9" fill="none" xmlns="http://www.w3.org/2000/svg">
<path d="M11.1665 2.33349C11.1665 2.33349 11.0498 1.58349 10.7498 1.28349C10.3665 0.883492 9.93317 0.883492 9.73317 0.866825C8.1665 0.766825 5.99984 0.766825 5.99984 0.766825H5.9915C5.9915 0.766825 3.82484 0.766825 2.25817 0.866825C2.05817 0.883492 1.62484 0.883492 1.24151 1.28349C0.941504 1.58349 0.824837 2.33349 0.824837 2.33349C0.824837 2.33349 0.708171 3.21682 0.708171 4.10016V4.91682C0.708171 5.80016 0.824837 6.68349 0.824837 6.68349C0.824837 6.68349 0.941504 7.43349 1.24151 7.73349C1.62484 8.13349 2.13317 8.11682 2.3665 8.16682C3.24984 8.25016 5.99984 8.28349 5.99984 8.28349C5.99984 8.28349 8.1665 8.28349 9.73317 8.16682C9.93317 8.15016 10.3665 8.15016 10.7498 7.75016C11.0498 7.45016 11.1665 6.70016 11.1665 6.70016C11.1665 6.70016 11.2832 5.81682 11.2832 4.93349V4.11682C11.2832 3.23349 11.1665 2.33349 11.1665 2.33349ZM4.89151 5.93349V2.88349L7.83317 4.41682L4.89151 5.93349Z" fill="#2B2B2B"/>
</svg> 